<?xml version="1.0" standalone="no"?>
<!DOCTYPE svg PUBLIC "-//W3C//DTD SVG 20010904//EN"
 "http://www.w3.org/TR/2001/REC-SVG-20010904/DTD/svg10.dtd">
<svg version="1.0" xmlns="http://www.w3.org/2000/svg"
 width="600.000000pt" height="600.000000pt" viewBox="0 0 600.000000 600.000000"
 preserveAspectRatio="xMidYMid meet">
<metadata>
Created by potrace 1.14, written by Peter Selinger 2001-2017
</metadata>
<g transform="translate(0.000000,600.000000) scale(0.100000,-0.100000)"
fill="#000000" stroke="none">
<path d="M2635 5184 c-454 -52 -1125 -271 -1220 -399 -42 -56 -21 -183 144
-875 69 -288 223 -906 296 -1185 20 -77 50 -192 66 -255 105 -405 229 -817
280 -935 29 -67 109 -154 239 -260 147 -119 177 -119 433 5 122 59 161 72 271
95 267 54 306 84 306 234 0 72 -19 169 -135 681 -30 135 -55 254 -55 265 0 15
20 31 73 59 225 123 481 274 544 322 204 157 357 425 402 709 28 170 -6 441
-85 680 -74 223 -178 400 -319 540 -180 180 -362 269 -659 320 -111 19 -411
18 -581 -1z m551 -29 c348 -43 621 -203 801 -470 141 -209 251 -546 269 -829
14 -208 -57 -467 -181 -656 -60 -93 -187 -220 -280 -282 -65 -43 -322 -191
-497 -287 -43 -24 -78 -44 -78 -46 0 -10 55 -267 85 -395 80 -346 117 -543
113 -607 -7 -107 -51 -133 -303 -183 -91 -18 -137 -35 -266 -96 -201 -95 -228
-101 -293 -68 -100 50 -291 229 -322 303 -95 218 -358 1191 -638 2356 -148
616 -181 790 -164 852 17 61 151 131 428 223 284 95 521 151 765 179 50 6 101
13 115 15 57 8 352 3 446 -9z"/>
<path d="M2475 5005 c-405 -88 -648 -161 -858 -259 -61 -29 -77 -41 -73 -54 3
-9 17 -78 31 -152 47 -248 120 -574 215 -960 73 -295 123 -488 144 -560 8 -25
21 -72 30 -105 19 -69 141 -496 162 -568 8 -26 20 -68 28 -95 32 -108 117
-385 150 -487 20 -60 36 -116 36 -122 0 -18 4 -17 100 18 174 62 356 122 523
170 33 9 47 19 47 31 0 18 -17 90 -100 433 -21 88 -45 191 -54 229 -9 38 -34
110 -56 160 -23 50 -44 112 -47 138 -5 42 -3 49 23 74 38 35 88 56 222 93 212
59 517 214 643 328 190 171 351 577 351 883 -1 150 -21 243 -78 357 -79 158
-206 273 -407 368 -176 83 -377 121 -652 123 -176 1 -184 0 -380 -43z m560 5
c198 -18 353 -60 496 -133 237 -121 372 -287 418 -515 39 -192 -14 -486 -134
-739 -102 -216 -214 -324 -477 -461 -140 -72 -235 -111 -363 -147 -139 -39
-200 -68 -235 -112 -32 -40 -23 -115 25 -218 20 -44 46 -116 56 -160 11 -44
49 -201 84 -350 36 -148 67 -278 69 -287 4 -17 -54 -39 -289 -108 -33 -10
-117 -38 -187 -63 -70 -25 -129 -43 -131 -39 -13 23 -249 804 -337 1117 -119
421 -277 1052 -351 1400 -90 425 -101 487 -87 500 12 12 121 59 227 99 155 59
375 118 671 181 227 48 332 54 545 35z"/>
<path d="M2790 4583 c-162 -30 -316 -65 -363 -83 -73 -27 -124 -71 -136 -116
-12 -42 14 -153 88 -387 62 -192 83 -273 106 -399 l17 -97 49 -32 48 -31 101
32 c291 90 550 300 632 512 30 77 36 219 13 306 -54 208 -189 304 -424 301
-58 -1 -117 -4 -131 -6z m314 -53 c71 -27 139 -87 171 -150 54 -106 69 -248
39 -351 -65 -219 -324 -438 -629 -531 l-80 -25 -36 23 c-35 22 -36 24 -62 156
-15 73 -47 198 -73 278 -66 206 -114 380 -114 413 0 89 80 133 335 181 72 14
141 27 155 30 14 2 72 3 130 2 80 -3 119 -9 164 -26z"/>
<path d="M2803 4443 c-41 -8 -247 -89 -250 -99 -3 -11 154 -119 174 -119 8 0
18 -7 23 -15 8 -12 13 -11 37 6 55 41 301 107 357 97 35 -7 33 12 -4 47 -72
67 -225 105 -337 83z m165 -38 c68 -16 122 -40 122 -54 0 -5 -20 -12 -45 -15
-55 -9 -253 -72 -272 -87 -7 -6 -19 -9 -26 -6 -20 7 -127 89 -127 96 0 7 91
43 165 65 64 19 105 19 183 1z"/>
<path d="M2975 4169 c-55 -10 -115 -21 -134 -24 l-34 -6 6 -72 c5 -59 69 -312
83 -326 8 -8 149 96 208 153 73 71 116 150 116 213 0 42 -1 44 -46 63 -54 23
-67 23 -199 -1z m180 -26 c27 -13 35 -23 35 -42 -1 -43 -36 -108 -92 -167 -55
-58 -175 -150 -184 -141 -17 17 -82 302 -71 313 5 6 216 48 264 53 7 0 28 -7
48 -16z"/>
<path d="M3985 3440 c-77 -9 -97 -19 -173 -97 -73 -73 -183 -163 -288 -234
-67 -45 -261 -146 -344 -179 -19 -7 -66 -28 -105 -46 -38 -17 -80 -34 -92 -38
-33 -10 -29 -18 25 -57 26 -18 67 -53 92 -78 l45 -43 35 19 c175 98 497 287
546 320 102 70 222 206 282 321 50 96 60 124 45 121 -5 -1 -35 -5 -68 -9z m25
-38 c0 -17 -84 -149 -133 -210 -80 -99 -186 -176 -455 -330 -136 -77 -254
-143 -262 -146 -9 -3 -40 18 -78 53 l-64 57 124 54 c325 141 474 235 675 425
51 47 105 90 120 95 36 11 73 12 73 2z"/>
<path d="M2723 1619 c-167 -55 -303 -104 -303 -108 0 -4 45 -44 100 -89 l100
-81 88 30 c47 17 105 39 127 49 118 53 227 94 309 114 l91 23 -79 81 c-60 61
-86 82 -105 82 -14 0 -162 -46 -328 -101z m390 13 l57 -58 -77 -23 c-43 -12
-163 -56 -266 -98 -103 -41 -194 -72 -202 -69 -33 12 -145 110 -136 119 8 8
536 185 556 186 6 1 36 -25 68 -57z"/>
<path d="M3320 965 c0 -31 -3 -35 -25 -35 -18 0 -25 -5 -25 -20 0 -15 7 -20
25 -20 l25 0 0 -103 c0 -125 11 -147 71 -147 33 0 40 3 37 17 -2 9 -14 20 -28
23 -24 6 -25 8 -28 108 l-3 102 26 0 c18 0 25 5 25 20 0 15 -7 20 -25 20 -22
0 -25 4 -25 35 0 31 -3 35 -25 35 -22 0 -25 -4 -25 -35z"/>
<path d="M2220 730 l0 -200 25 0 c24 0 25 2 25 65 0 60 9 80 25 55 3 -5 29
-10 56 -10 39 0 55 5 74 24 23 23 45 82 45 121 0 39 -22 98 -45 121 -29 29
-98 33 -133 8 -20 -14 -23 -14 -28 0 -3 9 -15 16 -25 16 -18 0 -19 -10 -19
-200z m169 141 c37 -37 39 -116 5 -168 -18 -28 -78 -31 -106 -6 -25 22 -26
148 -1 175 22 24 77 24 102 -1z"/>
<path d="M2530 785 l0 -145 25 0 25 0 0 101 c0 55 5 109 10 119 6 11 26 22 45
26 25 4 35 11 35 25 0 24 -46 26 -72 2 -17 -15 -18 -15 -18 0 0 11 -8 17 -25
17 l-25 0 0 -145z"/>
<path d="M2768 914 c-72 -39 -86 -180 -25 -242 34 -34 116 -42 164 -17 33 18
42 38 23 50 -5 3 -20 -1 -32 -9 -52 -37 -124 -10 -143 52 -6 22 -5 22 94 22
l101 0 0 35 c0 43 -22 88 -52 109 -28 20 -94 20 -130 0z m116 -46 c33 -47 23
-58 -54 -58 -63 0 -70 2 -70 20 0 54 93 83 124 38z"/>
<path d="M3039 901 c-53 -53 -30 -102 59 -127 54 -16 92 -38 92 -55 0 -20 -35
-39 -70 -39 -29 0 -43 6 -58 25 -11 14 -29 25 -41 25 -25 0 -25 -1 -9 -35 16
-36 57 -55 116 -55 68 0 102 27 102 80 0 47 -19 63 -102 86 -39 11 -59 23 -64
36 -9 29 14 48 57 48 30 0 42 -5 55 -25 19 -29 54 -34 54 -7 -1 42 -48 72
-115 72 -38 0 -52 -5 -76 -29z"/>
<path d="M3532 916 c-42 -23 -62 -66 -62 -131 0 -97 43 -144 133 -145 40 0 53
5 85 34 37 34 37 35 37 111 0 76 0 77 -37 111 -32 29 -45 34 -85 34 -27 -1
-58 -6 -71 -14z m127 -52 c15 -19 21 -41 21 -79 0 -70 -26 -105 -79 -105 -25
0 -44 7 -55 19 -37 41 -37 131 -1 171 28 31 88 27 114 -6z"/>
</g>
</svg>
